#!OML:ASF F:\VICON\USERDATA\INSTALL\rory3\rory3.ASF
:FULLY-SPECIFIED
:DEGREES
82
root 0.4016744057083967 18.098425610232912 12.395961009067996 8.562551945197121 -0.9444252527098254 -1.853979074053759
lfemur -10.839087058373995 7.867438034277764 -17.14269121138407
ltibia 13.818497947803655
lfoot -8.853248991600427 5.162831371765513
ltoes -5.702387237857192
rfemur -11.50483937566282 -2.491890980081287 20.515136861549102
rtibia 15.864664162753977
rfoot -12.67516609976258 0.6599637087199728
rtoes 13.749827726385345
lowerback -4.468811653553183 -0.032597215301896666 -0.4984261926871007
upperback 0.6164133777969787 -0.13672544239733786 1.2192138226335563
thorax 4.521588744861361 -0.07302339030115902 1.5174938633314534
lowerneck -11.42116069215292 -0.21988111884282796 -2.202806020489857
upperneck 30.98682756832207 -0.26277416014512034 2.021599972381652
head 12.368119235201132 -0.14516000606290497 1.0422886388631363
lclavicle -1.891763917159368e-15 4.760376514141267e-17
lhumerus -25.144115273437173 -7.0231997566537725 89.14202279151681
lradius 22.63823325017321
lwrist 8.329157878441025
lhand -23.894787222226988 -5.407759594297534
lfingers 7.125019999999999
lthumb 2.579006458867996 24.565902018954862
rclavicle -1.891763917159368e-15 4.760376514141267e-17
rhumerus -24.364199451203362 -10.811278100720614 -81.32135473496099
rradius 26.10621483315808
rwrist 36.228183107292224
rhand -17.720478108785997 -26.83219134914293
rfingers 7.125019999999999
rthumb 8.540059700946149 -56.63143661134947
83
root 0.394098204645988 18.089326437566577 12.379599359803919 8.546314157289638 -0.9483767223700978 -1.852883901545998
lfemur -11.323677517164056 7.784139624297794 -17.098668326384896
ltibia 14.213889647224976
lfoot -8.88436932284456 5.271833606591707
ltoes -5.885146654378729
rfemur -12.000991544844663 -2.534541927929575 20.504860297441915
rtibia 16.39054323769814
rfoot -12.750153278391164 0.39245344317687714
rtoes 13.662248879801
lowerback -4.344916869360689 -0.05267568546620126 -0.4892571495427326
upperback 0.6207923319186675 -0.16409970426500223 1.234957522455409
thorax 4.392543160728149 -0.08645030823123014 1.5236098328174703
lowerneck -11.546237573664934 -0.19261873535321977 -2.2112148148538218
upperneck 30.827950316108193 -0.20415303701511953 1.9802700419959418
head 12.354811806655562 -0.12784329336042125 1.0382111113797614
lclavicle -1.9474991314856727e-15 -2.661264920629526e-17
lhumerus -25.24050582980282 -6.336462463483402 88.87598334039613
lradius 22.247031565393513
lwrist 7.20353943972076
lhand -23.86061738045599 -5.424491072320108
lfingers 7.125019999999999
lthumb 2.612023652696561 24.548637523093852
rclavicle -1.9474991314856723e-15 -2.661264920629536e-17
rhumerus -24.61484841373647 -11.289005489416684 -81.22926713562936
rradius 25.772082520094358
rwrist 36.37815985944781
rhand -17.56592563265563 -26.855412374636693
rfingers 7.125019999999999
rthumb 8.689189393755049 -56.65319357417464
84
root 0.39043466751153993 18.056163293520097 12.291773833431304 8.402070747127318 -1.0035891488621211 -1.8439858940983236
lfemur -11.16821114693708 7.8462957922595535 -17.126997183430905
ltibia 13.912252372841248
lfoot -9.201402801503018 5.331991834687061
ltoes -5.932434567397989
rfemur -11.852524781554685 -2.54088435629336 20.497571355892102
rtibia 16.04741706165843
rfoot -13.141722276761204 0.5223963951080264
rtoes 13.317997043670474
lowerback -4.609444017455287 -0.07386512071880717 -0.47606683869922
upperback 0.549571108839312 -0.1919669753661522 1.2128900238712814
thorax 4.430399178952472 -0.10028732423746922 1.4895956108751842
lowerneck -11.565985014688533 -0.1806304559300897 -2.200561149925844
upperneck 30.932665451485903 -0.19521388697760725 1.9701013519513932
head 12.408751774433282 -0.12163267327514615 1.0367756165455988
lclavicle -2.0200069984666362e-15 -1.2299662421993144e-16
lhumerus -25.642559124137733 -5.587004008944176 88.51101768460705
lradius 21.946188498824746
lwrist 6.408249902153231
lhand -23.836491370857306 -5.361850772272424
lfingers 7.125019999999999
lthumb 2.635313384709499 24.61004303101228
rclavicle -2.0200069984666362e-15 -1.2299662421993144e-16
rhumerus -24.878437797117925 -12.209640762823401 -81.04548534160244
rradius 25.56986101976991
rwrist 36.50866767664494
rhand -17.430071593897786 -26.881650243191014
rfingers 7.125019999999999
rthumb 8.820250072071218 -56.67698080592002
85
root 0.38783370279507445 18.030304706224953 12.20766026203801 8.256095318567892 -1.0176397275355686 -1.843543675328011
lfemur -11.751093611925418 7.803752908442964 -17.10278944190879
ltibia 14.45743722568755
lfoot -9.270555111795831 5.4377310718209415
ltoes -6.244743971479087
rfemur -12.455627652056123 -2.589800808052627 20.442026240229062
rtibia 16.735398164422726
rfoot -13.220447079386116 0.23203820113452123
rtoes 13.190752995131476
lowerback -4.486934534369032 -0.07314171378257782 -0.45179868638817205
upperback 0.5638085081908337 -0.19649114349974614 1.231834870794012
thorax 4.282358631399601 -0.09985220711401187 1.4913825298191323
lowerneck -11.673516448788634 -0.15179162222335976 -2.2119616861789226
upperneck 30.8125278023838 -0.13748706918056025 1.9314055658211695
head 12.40773360995226 -0.10451307605521812 1.0344080935723818
lclavicle -2.0723012864560707e-15 -1.9246867405840225e-16
lhumerus -25.8417042601134 -4.7716211521453005 88.24048661601636
lradius 21.51310058282372
lwrist 5.239417903363336
lhand -23.783037396865282 -5.341432399961237
lfingers 7.125019999999999
lthumb 2.686935575084577 24.629124258768705
rclavicle -2.0723012864560707e-15 -1.9246867405840225e-16
rhumerus -25.22993249681621 -12.921646825894015 -80.84992098804435
rradius 25.198205882871527
rwrist 36.613754167747636
rhand -17.29685288991688 -26.87773285102286
rfingers 7.125019999999999
rthumb 8.948791489227187 -56.67202951307459
86
root 0.3904883185790101 18.018310130911214 12.30636006251656 8.242719128951542 -1.0403809753178699 -1.8376905220621498
lfemur -11.381132772705744 7.9316545441697075 -17.103756185267393
ltibia 14.559844983458836
lfoot -9.536763163622092 5.563474730029939
ltoes -6.170529563488027
rfemur -12.063905430994089 -2.529295828388551 20.49477228227487
rtibia 16.777737325817924
rfoot -13.531177353169697 0.39452180270943193
rtoes 12.902462779669595
lowerback -4.546101815199218 -0.05163983821338237 -0.3927276787472815
upperback 0.561989776494737 -0.1696228664427867 1.230618242186364
thorax 4.414503285246047 -0.08381112929166055 1.4734577589798676
lowerneck -11.66981537846811 -0.13497779332755225 -2.188053696903174
upperneck 31.000770473970217 -0.11929440863241797 1.9303319068071587
head 12.486164068120866 -0.09483620329965547 1.0320919463292366
lclavicle -1.979961995873722e-15 -6.980390122322429e-17
lhumerus -26.076360915034314 -3.774189352458486 88.01228203524448
lradius 21.298077176331503
lwrist 4.781058311581463
lhand -23.696315928329746 -5.205916086110172
lfingers 7.125019999999999
lthumb 2.7706710634156435 24.763595261648017
rclavicle -1.979961995873722e-15 -6.980390122322429e-17
rhumerus -25.385257059201756 -13.691305474996723 -80.60925788714871
rradius 25.158702092118848
rwrist 36.78792326067259
rhand -17.179171966509653 -26.892385433337246
rfingers 7.125019999999999
rthumb 9.062320782978643 -56.68474612780225
87
root 0.3957334414371079 18.033218497518572 12.487784465872046 8.134789426267476 -1.0436599156826916 -1.8172293429161501
lfemur -11.344209665385698 8.013382801469636 -17.06048249926185
ltibia 15.336464386217765
lfoot -9.238484865610397 5.71593316934859
ltoes -6.191723530123355
rfemur -12.065056158623594 -2.471347622501857 20.447381890231032
rtibia 17.666814095685282
rfoot -13.189745704577724 0.4075448280008418
rtoes 13.054523524215083
lowerback -4.326635894341477 -0.016135897184425874 -0.32001704624392074
upperback 0.6531285527164643 -0.1303953845383483 1.2485589775093715
thorax 4.467816513375071 -0.06103896856886755 1.470823874857995
lowerneck -11.596164983222556 -0.08845497824100221 -2.1881518839505736
upperneck 31.242427828404157 -0.03769777811578427 1.9306415026435562
head 12.582967910356604 -0.06885727039257487 1.0388468566512234
lclavicle -1.799572483607149e-15 1.6979815055878983e-16
lhumerus -26.073454780824488 -2.868389956684365 87.93296181970369
lradius 21.16765641849713
lwrist 4.311761165475833
lhand -23.602945065912802 -5.08043718125254
lfingers 7.125019999999999
lthumb 2.8608270181792452 24.886476912729616
rclavicle -1.799572483607149e-15 1.6979815055878983e-16
rhumerus -25.53857792856853 -14.084914294723037 -80.3154937613154
rradius 25.077833316621206
rwrist 36.97072548323266
rhand -17.030405128429205 -26.852818374711543
rfingers 7.125019999999999
rthumb 9.205852588813244 -56.64307054455673
